# xmcd CD database file
#
# Track frame offsets:
#	182
#	15545
#	37395
#
# Disc length: 716 seconds
#
# Revision: 1
# Processed by: cddbd v1.5.2PL0 Copyright (c) Steve Scherf et al.
# Submitted via: CDex 1.70beta2
#
DISCID=2002ca03
DTITLE=Cay - Nature create freaks
DYEAR=1999
DGENRE=Indie
TTITLE0=Nature create freaks
TTITLE1=Radar-eared rat psychosis
TTITLE2=Skool (live at Steve Lamacq's evening session)
EXTD=YEAR: 1999
EXTT0=
EXTT1=
EXTT2=
PLAYORDER=
